name D:\school\WTK\thesis\model\3dpredictsim\Results\Test_Lars\debug_oldpredsim_ig.mot
datacolumns 126
datarows 4
range 1.61327891 1.64554448
endheader
time	pelvis_tilt	pelvis_list	pelvis_rotation	pelvis_tx	pelvis_ty	pelvis_tz	hip_flexion_l	hip_adduction_l	hip_rotation_l	hip_flexion_r	hip_adduction_r	hip_rotation_r	knee_angle_l	knee_angle_r	ankle_angle_l	ankle_angle_r	subtalar_angle_l	subtalar_angle_r	mtp_angle_l	mtp_angle_r	lumbar_extension	lumbar_bending	lumbar_rotation	arm_flex_l	arm_add_l	arm_rot_l	arm_flex_r	arm_add_r	arm_rot_r	elbow_flex_l	elbow_flex_r	pro_sup_l	pro_sup_r	glut_med1_l/activation	glut_med2_l/activation	glut_med3_l/activation	glut_min1_l/activation	glut_min2_l/activation	glut_min3_l/activation	semimem_l/activation	semiten_l/activation	bifemlh_l/activation	bifemsh_l/activation	sar_l/activation	add_long_l/activation	add_brev_l/activation	add_mag1_l/activation	add_mag2_l/activation	add_mag3_l/activation	tfl_l/activation	pect_l/activation	grac_l/activation	glut_max1_l/activation	glut_max2_l/activation	glut_max3_l/activation	iliacus_l/activation	psoas_l/activation	quad_fem_l/activation	gem_l/activation	peri_l/activation	rect_fem_l/activation	vas_med_l/activation	vas_int_l/activation	vas_lat_l/activation	med_gas_l/activation	lat_gas_l/activation	soleus_l/activation	tib_post_l/activation	flex_dig_l/activation	flex_hal_l/activation	tib_ant_l/activation	per_brev_l/activation	per_long_l/activation	per_tert_l/activation	ext_dig_l/activation	ext_hal_l/activation	ercspn_l/activation	intobl_l/activation	extobl_l/activation	glut_med1_r/activation	glut_med2_r/activation	glut_med3_r/activation	glut_min1_r/activation	glut_min2_r/activation	glut_min3_r/activation	semimem_r/activation	semiten_r/activation	bifemlh_r/activation	bifemsh_r/activation	sar_r/activation	add_long_r/activation	add_brev_r/activation	add_mag1_r/activation	add_mag2_r/activation	add_mag3_r/activation	tfl_r/activation	pect_r/activation	grac_r/activation	glut_max1_r/activation	glut_max2_r/activation	glut_max3_r/activation	iliacus_r/activation	psoas_r/activation	quad_fem_r/activation	gem_r/activation	peri_r/activation	rect_fem_r/activation	vas_med_r/activation	vas_int_r/activation	vas_lat_r/activation	med_gas_r/activation	lat_gas_r/activation	soleus_r/activation	tib_post_r/activation	flex_dig_r/activation	flex_hal_r/activation	tib_ant_r/activation	per_brev_r/activation	per_long_r/activation	per_tert_r/activation	ext_dig_r/activation	ext_hal_r/activation	ercspn_r/activation	intobl_r/activation	extobl_r/activation	
          1.61327891	         -2.92957702	          2.20131018	         -5.10141480	          2.01659863	          0.85868702	          0.00198367	         31.60495373	          3.15433119	         -1.58879179	        -18.15435321	         -1.65970805	          6.99886561	        -14.52265012	         -5.90384066	          7.58317776	          1.58961018	         -3.23648444	          9.62796695	         -0.13216809	         21.45917075	         -2.01704049	         -0.52562539	          1.91623626	         -8.48398937	        -13.55275123	          8.77714040	          8.74889260	        -13.45294162	         18.06419966	         13.07368974	         33.94584065	         86.51662706	         86.51662706	          0.11373572	          0.05000015	          0.05896250	          0.05000011	          0.05000014	          0.05000047	          0.05896269	          0.05896287	          0.19662814	          0.05000056	          0.05000177	          0.09635001	          0.14703215	          0.21705412	          0.15790285	          0.10809031	          0.05896260	          0.05013229	          0.05896416	          0.05902924	          0.06953166	          0.10825772	          0.05000012	          0.05000016	          0.25765424	          0.05098163	          0.05000050	          0.05000038	          0.09180123	          0.09584158	          0.08043389	          0.05896260	          0.05635310	          0.05896264	          0.05000006	          0.05000094	          0.05000251	          0.49526555	          0.38583449	          0.22104374	          0.27148281	          0.54695694	          0.28729940	          0.07674319	          0.11014793	          0.12138744	          0.32940110	          0.11402638	          0.08199555	          0.34158207	          0.22659919	          0.11402734	          0.05000108	          0.05000020	          0.05000014	          0.07691087	          0.11402735	          0.05000016	          0.05000014	          0.05000017	          0.05000045	          0.05000032	          0.33578662	          0.05000067	          0.05000059	          0.05004282	          0.05000253	          0.05000132	          0.39014797	          0.64003105	          0.05000041	          0.05000106	          0.06150235	          0.20588741	          0.05000140	          0.05000074	          0.05000075	          0.33369215	          0.44813849	          0.31367666	          0.27426309	          0.29246597	          0.38876769	          0.05000003	          0.06228956	          0.16461625	          0.05000018	          0.05000005	          0.05000019	          0.05000001	          0.05000001	          0.05000002	
          1.62403410	         -2.92485295	          2.29257388	         -5.39652919	          2.03257134	          0.85762038	          0.00179139	         31.02261217	          3.49378429	         -1.38087735	        -18.03830364	         -1.95386114	          6.77470310	        -14.37304810	         -7.81204517	          7.02064680	          0.85808156	         -3.71011698	         10.56555532	         -0.11435839	         22.48685063	         -1.83664759	         -0.74866960	          1.98705078	         -9.50093601	        -13.54724205	          8.69455851	          8.63486045	        -13.46175598	         18.26409771	         12.91044787	         35.07225042	         86.51662706	         86.51662706	          0.09644736	          0.05896254	          0.05000012	          0.05896328	          0.05896275	          0.05000090	          0.05000009	          0.05000041	          0.16871707	          0.05000046	          0.05000096	          0.08170547	          0.12468277	          0.22241523	          0.17664471	          0.10390195	          0.05000029	          0.05000151	          0.05000170	          0.05005716	          0.05896258	          0.10658756	          0.05179787	          0.05080411	          0.50312303	          0.13680055	          0.08915210	          0.06953210	          0.18723997	          0.19036044	          0.16461075	          0.05000000	          0.05000001	          0.05000000	          0.05000012	          0.05896292	          0.05000239	          0.55072164	          0.33875115	          0.22826882	          0.46607613	          0.58975309	          0.26015488	          0.06507780	          0.09340483	          0.10293586	          0.27933035	          0.09669374	          0.06953180	          0.28965977	          0.19215488	          0.09669457	          0.05000239	          0.05000055	          0.05000075	          0.06522001	          0.09669472	          0.11574384	          0.05004720	          0.05104893	          0.05001543	          0.06952945	          0.28474526	          0.06149617	          0.05000144	          0.05000151	          0.05000145	          0.05000139	          0.33084332	          0.56113914	          0.05000041	          0.05007923	          0.05896274	          0.17459144	          0.05000193	          0.16888039	          0.15880535	          0.28296905	          0.38001893	          0.26799154	          0.24923192	          0.24801049	          0.32967379	          0.05000002	          0.05353308	          0.17223708	          0.05000015	          0.05000004	          0.05000014	          0.05000002	          0.06953189	          0.05000002	
          1.63478929	         -2.91614492	          2.37862980	         -5.66915022	          2.04884628	          0.85657081	          0.00160754	         30.31625788	          3.78467616	         -1.11294075	        -17.84669188	         -2.23917985	          6.54108612	        -14.76780868	         -9.85635729	          6.38755224	         -0.02797952	         -4.20268706	         11.46576651	         -0.15490187	         23.36554369	         -1.63380610	         -0.97324526	          2.04859755	        -10.53803320	        -13.54197617	          8.63212970	          8.43057304	        -13.47137729	         18.39239043	         12.80250909	         36.16956990	         86.51662706	         86.51662706	          0.26941246	          0.05000007	          0.30352815	          0.05000058	          0.05000019	          0.21261088	          0.07505346	          0.05000018	          0.15498457	          0.05000006	          0.05000045	          0.08199675	          0.22695531	          0.18860778	          0.14979474	          0.13010916	          0.05000054	          0.05900908	          0.11411292	          0.05000011	          0.05000016	          0.11860299	          0.05816592	          0.05000127	          0.42664552	          0.11600619	          0.16510211	          0.05896284	          0.15877851	          0.16142466	          0.13958905	          0.06575336	          0.06934907	          0.05936953	          0.05896268	          0.05000036	          0.05000057	          0.46700882	          0.34604146	          0.19357074	          0.39523004	          0.58047559	          0.22060989	          0.05518563	          0.09509856	          0.08728903	          0.33489129	          0.08199577	          0.05896261	          0.24563005	          0.16294630	          0.08199648	          0.05000176	          0.05000062	          0.05000063	          0.05530624	          0.08199679	          0.14112413	          0.09585476	          0.05896352	          0.05896272	          0.05896250	          0.24146268	          0.08550050	          0.05018512	          0.05000925	          0.05000756	          0.05315061	          0.28055339	          0.53740832	          0.05586288	          0.05000108	          0.05000018	          0.14805258	          0.09709325	          0.14321010	          0.13466664	          0.23995614	          0.32225390	          0.22725530	          0.21134734	          0.21031171	          0.27956167	          0.05000002	          0.05000034	          0.18793380	          0.05000009	          0.05000002	          0.05000011	          0.05582922	          0.05896266	          0.05000196	
          1.64554448	         -2.90506878	          2.46361782	         -5.91208690	          2.06526885	          0.85554337	          0.00141356	         29.48400242	          4.04193262	         -0.83425766	        -17.55670025	         -2.51557145	          6.30388079	        -15.21017573	        -12.05599011	          5.93819686	         -1.06156248	         -4.68860111	         12.30984617	         -0.16345796	         24.05206573	         -1.42366256	         -1.20233895	          2.10084841	        -11.55487483	        -13.53793034	          8.60789928	          8.15840099	        -13.48367088	         18.45829320	         12.72297129	         37.22585143	         86.51662706	         86.51662706	          0.31666955	          0.29038853	          0.37121347	          0.19700001	          0.21520671	          0.18029343	          0.06364502	          0.10025342	          0.13142608	          0.08253753	          0.05896217	          0.06953281	          0.19245683	          0.15993844	          0.12702530	          0.15257040	          0.05000033	          0.05003965	          0.09676796	          0.22415902	          0.17045516	          0.12934447	          0.05000008	          0.05000010	          0.36179305	          0.09837280	          0.14000594	          0.05000018	          0.13464335	          0.13688732	          0.11837079	          0.05575849	          0.05880765	          0.05034503	          0.05000003	          0.05896273	          0.05241481	          0.59825999	          0.43839777	          0.22388910	          0.64777768	          0.65039701	          0.34920487	          0.07930798	          0.08790583	          0.07402060	          0.30997868	          0.06953197	          0.05000010	          0.34779840	          0.13817760	          0.06953259	          0.05000229	          0.05000016	          0.05000014	          0.05000020	          0.06953331	          0.12909624	          0.08128444	          0.05000098	          0.05000093	          0.05000045	          0.25588900	          0.07250490	          0.05000049	          0.05000125	          0.05000081	          0.05000048	          0.23790783	          0.50085797	          0.05000009	          0.05000062	          0.05000036	          0.13446591	          0.08233494	          0.12144208	          0.12952857	          0.20348144	          0.27326948	          0.19271120	          0.17922139	          0.17834326	          0.23706680	          0.05000004	          0.09534146	          0.18847327	          0.05000017	          0.05000034	          0.05000022	          0.07420578	          0.05000001	          0.05000002	
